<svg id="btn-dd-move.svg" xmlns="http://www.w3.org/2000/svg" width="24" height="24" viewBox="0 0 24 24">
  <defs>
    <style>
      .btn-dd-move {
        fill: #f46d69;
        fill-rule: evenodd;
      }
    </style>
  </defs>
  <path id="one" class="btn-dd-move" d="M370,106a12,12,0,1,1-12,12A12,12,0,0,1,370,106Zm0,1a11,11,0,1,1-11,11A11,11,0,0,1,370,107Z" transform="translate(-358 -106)"/>
  <path id="two" class="btn-dd-move" d="M374.671,116.219a1.145,1.145,0,0,1-1.529,0l-3.142-2.9-3.142,2.9a1.145,1.145,0,0,1-1.529,0,0.945,0.945,0,0,1,0-1.413l3.823-3.531a1.432,1.432,0,0,1,1.7,0l3.823,3.531A0.945,0.945,0,0,1,374.671,116.219Zm-7.844,3.533,3.142,2.9,3.142-2.9a1.145,1.145,0,0,1,1.529,0,0.947,0.947,0,0,1,0,1.413l-3.823,3.531a1.432,1.432,0,0,1-1.7,0l-3.823-3.531a0.945,0.945,0,0,1,0-1.413A1.145,1.145,0,0,1,366.827,119.752Z" transform="translate(-358 -106)"/>
</svg>
